# xmcd
#
# Track frame offsets:
#	150
#	31425
#	61907
#	89197
#	128095
#	151365
#	170385
#	186812
#	199685
#	220050
#	255030
#	268442
#
# Disc length: 3800
#
# Revision: 1
# Processed by: cddbd v1.5.1PL0 Copyright (c) Steve Scherf et al.
# Submitted via: CDex 1.50beta9
# Normalized: r0:DSETVAR1
#
DISCID=a80ed60c
DTITLE=Various Artist - Blue Note Plays Ellington and Strayhorn [promo]
DYEAR=1999
DGENRE=Jazz
TTITLE0=James Newton - Cottontail
TTITLE1=Clifford Jordan - Sophisticated Lady
TTITLE2=Junko Onishi - The Shepherd
TTITLE3=Joe Henderson - Happy Reunion
TTITLE4=Horace Parlan - C-Jam Blues
TTITLE5=Bobby Watson - Blood Count
TTITLE6=McCoy Tyner - In A Mellow Tone
TTITLE7=Horace Silver - Prelude To A Kiss
TTITLE8=Sonny Clark - I'm Just A Lucky So And So
TTITLE9=Greg Osby - I Didn't Know About You
TTITLE10=Michel Petrucciani - Take The A Train
TTITLE11=Joe Lovano - Chelsea Bridge
EXTD=YEAR: 1999
EXTT0=
EXTT1=
EXTT2=
EXTT3=
EXTT4=
EXTT5=
EXTT6=
EXTT7=
EXTT8=
EXTT9=
EXTT10=
EXTT11=
PLAYORDER=
